<svg width="400" height="300" viewBox="0 0 400 300" xmlns="http://www.w3.org/2000/svg">
  <defs>
    <linearGradient id="darkGradient2" x1="0%" y1="0%" x2="100%" y2="100%">
      <stop offset="0%" style="stop-color:#064e3b;stop-opacity:1" />
      <stop offset="50%" style="stop-color:#0f766e;stop-opacity:1" />
      <stop offset="100%" style="stop-color:#14b8a6;stop-opacity:1" />
    </linearGradient>
    <linearGradient id="accentGradient2" x1="0%" y1="0%" x2="100%" y2="100%">
      <stop offset="0%" style="stop-color:#059669;stop-opacity:1" />
      <stop offset="50%" style="stop-color:#10b981;stop-opacity:1" />
      <stop offset="100%" style="stop-color:#34d399;stop-opacity:1" />
    </linearGradient>
    <filter id="glow2">
      <feGaussianBlur stdDeviation="3" result="coloredBlur"/>
      <feMerge> 
        <feMergeNode in="coloredBlur"/>
        <feMergeNode in="SourceGraphic"/>
      </feMerge>
    </filter>
  </defs>
  
  <!-- Background -->
  <rect width="400" height="300" fill="url(#darkGradient2)"/>
  
  <!-- Geometric patterns -->
  <polygon points="0,0 100,0 50,100" fill="#0f766e" opacity="0.3"/>
  <polygon points="300,300 400,300 350,200" fill="#14b8a6" opacity="0.2"/>
  
  <!-- Central terminal/code icon -->
  <g transform="translate(125, 75)">
    <rect x="0" y="0" width="150" height="100" rx="12" fill="#0f172a" stroke="url(#accentGradient2)" stroke-width="2" filter="url(#glow2)"/>
    <rect x="10" y="25" width="130" height="65" rx="6" fill="#1e293b"/>
    
    <!-- Terminal header -->
    <rect x="10" y="10" width="130" height="15" rx="6" fill="#374151"/>
    <circle cx="20" cy="17" r="2" fill="#ef4444"/>
    <circle cx="30" cy="17" r="2" fill="#f59e0b"/>
    <circle cx="40" cy="17" r="2" fill="#10b981"/>
    
    <!-- Code lines -->
    <rect x="20" y="35" width="40" height="3" fill="#10b981"/>
    <rect x="70" y="35" width="25" height="3" fill="#64748b"/>
    <rect x="20" y="45" width="60" height="3" fill="#34d399"/>
    <rect x="20" y="55" width="35" height="3" fill="#10b981"/>
    <rect x="65" y="55" width="45" height="3" fill="#64748b"/>
    <rect x="20" y="65" width="50" height="3" fill="#34d399"/>
    <rect x="20" y="75" width="30" height="3" fill="#10b981"/>
    
    <!-- Cursor -->
    <rect x="55" y="75" width="2" height="3" fill="#34d399">
      <animate attributeName="opacity" values="1;0;1" dur="1s" repeatCount="indefinite"/>
    </rect>
  </g>
  
  <!-- Floating elements -->
  <g transform="translate(50, 50)">
    <rect x="0" y="0" width="20" height="3" fill="#10b981" opacity="0.6" transform="rotate(15)"/>
  </g>
  <g transform="translate(320, 80)">
    <rect x="0" y="0" width="25" height="3" fill="#34d399" opacity="0.5" transform="rotate(-20)"/>
  </g>
  <g transform="translate(80, 200)">
    <rect x="0" y="0" width="15" height="3" fill="#059669" opacity="0.7" transform="rotate(45)"/>
  </g>
  
  <!-- Abstract dots -->
  <circle cx="60" cy="120" r="2" fill="#10b981" opacity="0.8"/>
  <circle cx="340" cy="160" r="3" fill="#34d399" opacity="0.6"/>
  <circle cx="370" cy="40" r="2" fill="#059669" opacity="0.9"/>
  
  <!-- Title -->
  <text x="200" y="250" text-anchor="middle" fill="#e2e8f0" font-family="Arial, sans-serif" font-size="18" font-weight="bold">AI PROMPTS ARSENAL</text>
  <text x="200" y="270" text-anchor="middle" fill="#94a3b8" font-family="Arial, sans-serif" font-size="12">2025</text>
</svg>