<svg xmlns="http://www.w3.org/2000/svg" width="800" height="600" viewBox="0 0 800 600">
  <!-- Background -->
  <rect width="800" height="600" fill="#f5f3ff" />
  
  <!-- Prompt Cards -->
  <g transform="translate(200, 100)">
    <!-- Card 1 (bottom) -->
    <g transform="translate(20, 20)">
      <rect x="0" y="0" width="280" height="380" rx="10" fill="#8b5cf6" opacity="0.7" />
      <text x="140" y="190" font-family="Arial, sans-serif" font-size="24" font-weight="bold" text-anchor="middle" fill="#ffffff" opacity="0.5">AI Prompt</text>
    </g>
    
    <!-- Card 2 (middle) -->
    <g transform="translate(40, 10)">
      <rect x="0" y="0" width="280" height="380" rx="10" fill="#7c3aed" opacity="0.8" />
      <text x="140" y="190" font-family="Arial, sans-serif" font-size="24" font-weight="bold" text-anchor="middle" fill="#ffffff" opacity="0.6">AI Prompt</text>
    </g>
    
    <!-- Card 3 (top) -->
    <g transform="translate(60, 0)">
      <rect x="0" y="0" width="280" height="380" rx="10" fill="#6d28d9" />
      
      <!-- Card content -->
      <rect x="20" y="20" width="240" height="340" rx="5" fill="#ffffff" opacity="0.9" />
      
      <!-- Card title -->
      <text x="140" y="60" font-family="Arial, sans-serif" font-size="18" font-weight="bold" text-anchor="middle" fill="#4c1d95">AI Prompts Arsenal</text>
      
      <!-- Prompt number -->
      <circle cx="40" cy="40" r="15" fill="#7c3aed" />
      <text x="40" y="45" font-family="Arial, sans-serif" font-size="14" font-weight="bold" text-anchor="middle" fill="#ffffff">30</text>
      
      <!-- Prompt text lines -->
      <g fill="#6b7280">
        <rect x="40" y="90" width="200" height="2" rx="1" />
        <rect x="40" y="110" width="180" height="2" rx="1" />
        <rect x="40" y="130" width="190" height="2" rx="1" />
        <rect x="40" y="150" width="160" height="2" rx="1" />
        <rect x="40" y="170" width="200" height="2" rx="1" />
        <rect x="40" y="190" width="170" height="2" rx="1" />
        <rect x="40" y="210" width="190" height="2" rx="1" />
        <rect x="40" y="230" width="180" height="2" rx="1" />
        <rect x="40" y="250" width="200" height="2" rx="1" />
        <rect x="40" y="270" width="160" height="2" rx="1" />
      </g>
      
      <!-- AI icon -->
      <g transform="translate(140, 320)">
        <circle cx="0" cy="0" r="25" fill="#ddd6fe" />
        <text x="0" y="5" font-family="Arial, sans-serif" font-size="14" font-weight="bold" text-anchor="middle" fill="#6d28d9">AI</text>
      </g>
    </g>
  </g>
  
  <!-- Collection text -->
  <text x="400" y="520" font-family="Arial, sans-serif" font-size="28" font-weight="bold" text-anchor="middle" fill="#6d28d9">AI Prompts Arsenal 2025</text>
  <text x="400" y="550" font-family="Arial, sans-serif" font-size="16" text-anchor="middle" fill="#6b7280">Expertly crafted for maximum results</text>
</svg>