<svg xmlns="http://www.w3.org/2000/svg" width="800" height="600" viewBox="0 0 800 600">
  <!-- Background -->
  <rect width="800" height="600" fill="#f0f4f8" />
  
  <!-- Book -->
  <g transform="translate(250, 150)">
    <!-- Book cover -->
    <rect x="0" y="0" width="300" height="400" rx="10" fill="#4a6fa5" />
    
    <!-- Book spine shadow -->
    <rect x="280" y="20" width="20" height="360" fill="#3a5a80" />
    
    <!-- Book title -->
    <text x="150" y="100" font-family="Arial, sans-serif" font-size="32" font-weight="bold" text-anchor="middle" fill="#ffffff">Premium</text>
    <text x="150" y="150" font-family="Arial, sans-serif" font-size="40" font-weight="bold" text-anchor="middle" fill="#ffffff">AI</text>
    <text x="150" y="200" font-family="Arial, sans-serif" font-size="32" font-weight="bold" text-anchor="middle" fill="#ffffff">E-book</text>
    
    <!-- AI-related graphics -->
    <circle cx="150" cy="280" r="60" fill="#ffffff" opacity="0.2" />
    
    <!-- Circuit board pattern -->
    <g fill="none" stroke="#ffffff" stroke-width="2" opacity="0.3">
      <path d="M80,250 L220,250" />
      <path d="M80,270 L220,270" />
      <path d="M80,290 L220,290" />
      <path d="M80,310 L220,310" />
      <path d="M100,250 L100,310" />
      <path d="M140,250 L140,310" />
      <path d="M180,250 L180,310" />
      <path d="M220,250 L220,310" />
    </g>
    
    <!-- Brain icon -->
    <g transform="translate(120, 270) scale(0.6)">
      <path d="M50,0 C22.4,0 0,22.4 0,50 C0,77.6 22.4,100 50,100 C77.6,100 100,77.6 100,50 C100,22.4 77.6,0 50,0 Z" fill="#ffffff" opacity="0.8" />
      <path d="M50,20 C33.4,20 20,33.4 20,50 C20,66.6 33.4,80 50,80 C66.6,80 80,66.6 80,50 C80,33.4 66.6,20 50,20 Z M30,45 C32.8,45 35,47.2 35,50 C35,52.8 32.8,55 30,55 C27.2,55 25,52.8 25,50 C25,47.2 27.2,45 30,45 Z M50,75 C38.4,75 28.6,67.3 25.4,56.8 C26.9,57.6 28.6,58 30.4,58 C35.8,58 40.2,53.6 40.2,48.2 C40.2,42.8 35.8,38.4 30.4,38.4 C28.6,38.4 26.9,38.8 25.4,39.6 C28.6,29.1 38.4,21.4 50,21.4 C61.6,21.4 71.4,29.1 74.6,39.6 C73.1,38.8 71.4,38.4 69.6,38.4 C64.2,38.4 59.8,42.8 59.8,48.2 C59.8,53.6 64.2,58 69.6,58 C71.4,58 73.1,57.6 74.6,56.8 C71.4,67.3 61.6,75 50,75 Z M70,55 C67.2,55 65,52.8 65,50 C65,47.2 67.2,45 70,45 C72.8,45 75,47.2 75,50 C75,52.8 72.8,55 70,55 Z" fill="#4a6fa5" />
    </g>
  </g>
</svg>